<svg width="48" height="48" viewBox="0 0 48 48" fill="none" xmlns="http://www.w3.org/2000/svg">
<path fill-rule="evenodd" clip-rule="evenodd" d="M43.3965 24.106C43.5628 24.1934 43.7049 24.3208 43.81 24.4769C43.9135 24.633 43.977 24.8123 43.9948 24.9989C44.0126 25.1855 43.9842 25.3737 43.9121 25.5467L41.3487 32.1588C41.2756 32.3437 41.1554 32.5062 41.0001 32.63C40.8449 32.7538 40.66 32.8346 40.464 32.8644C39.3338 33.0014 38.1913 33.0014 37.0612 32.8644C36.0494 33.8691 34.8998 34.7237 33.6471 35.4022C33.7719 35.9144 33.9307 36.4493 34.1348 37.0524C34.2823 37.4735 34.4751 37.9629 34.6679 38.4181C34.7409 38.5911 34.7702 38.7795 34.7529 38.9665C34.7357 39.1536 34.6727 39.3334 34.5693 39.4901C34.466 39.6467 34.3256 39.7752 34.1608 39.8642C33.9959 39.9532 33.8116 39.9998 33.6244 40H28.7018C28.5247 39.9987 28.3504 39.9558 28.1929 39.8748C28.0353 39.7937 27.8988 39.6768 27.7944 39.5334C27.2953 38.8619 26.8416 38.1791 26.4219 37.4963C24.9133 37.6459 23.3936 37.6459 21.8849 37.4963L20.5465 37.3483L20.9888 38.3726C21.0594 38.545 21.0868 38.7322 21.0684 38.9176C21.05 39.1031 20.9865 39.2812 20.8834 39.4363C20.7804 39.5914 20.641 39.7187 20.4774 39.8071C20.3138 39.8955 20.1311 39.9422 19.9453 39.9431H14.8185C14.6575 39.9429 14.4983 39.9083 14.3516 39.8416C14.205 39.7748 14.0741 39.6776 13.9678 39.5562C12.4747 37.7989 11.2199 35.851 10.2361 33.7634L10.0433 33.331C8.81232 30.8478 8.10933 28.1349 7.97897 25.3646L6.93546 24.8411C6.28115 24.5118 5.70041 24.0524 5.22854 23.4909C4.75667 22.9294 4.40352 22.2775 4.19057 21.5748C4.01756 20.9949 3.96155 20.3863 4.02582 19.7844C4.09009 19.1825 4.27335 18.5996 4.56487 18.0696C4.87843 17.5049 5.33153 17.0307 5.8806 16.6926C6.01838 16.6089 6.17124 16.5532 6.33046 16.5288C6.48967 16.5044 6.65212 16.5117 6.80853 16.5502C6.96494 16.5888 7.11224 16.6579 7.24203 16.7536C7.37182 16.8493 7.48155 16.9697 7.56497 17.1079C7.64838 17.2462 7.70384 17.3996 7.72818 17.5593C7.75251 17.7191 7.74525 17.8821 7.70681 18.039C7.66837 18.1959 7.59949 18.3437 7.50412 18.4739C7.40875 18.6042 7.28875 18.7143 7.15097 18.798C6.94889 18.9159 6.78083 19.0846 6.66324 19.2873C6.53211 19.5288 6.4505 19.7942 6.42323 20.0679C6.39596 20.3415 6.42357 20.6178 6.50444 20.8806C6.63089 21.2638 6.83533 21.6165 7.10478 21.9162C7.37423 22.2159 7.70282 22.4562 8.06971 22.6218C9.01114 15.6797 16.3611 10.4446 24.4029 11.2299C26.425 11.4432 28.4005 11.9771 30.2557 12.8118C31.2029 12.0667 32.2394 11.4435 33.3409 10.9567C35.2628 10.1175 37.3772 9.8223 39.4545 10.1032C39.7796 10.1543 40.0873 10.2848 40.3504 10.4833C40.6134 10.6817 40.8238 10.942 40.963 11.2413C41.102 11.5702 41.1572 11.9286 41.1235 12.2843C41.0899 12.64 40.9684 12.9816 40.7702 13.2784L37.5036 18.3996C38.303 19.9602 39.3062 21.4069 40.4867 22.7015C41.1001 23.3964 41.9408 23.8485 42.8572 23.9761C43.0449 23.974 43.2303 24.0186 43.3965 24.106ZM36.857 30.5427C37.7388 30.6768 38.6321 30.7188 39.5225 30.6679L41.326 25.9336C40.4205 25.5727 39.5955 25.035 38.8987 24.3517C37.3985 22.6993 36.1349 20.8455 35.1443 18.8435L34.8608 18.2745L38.6945 12.2541C37.1444 12.1184 35.585 12.3726 34.1575 12.9939C33.0786 13.4843 32.0804 14.1367 31.1971 14.9286L30.63 15.4634L29.9268 15.1334C28.1167 14.2441 26.1676 13.6743 24.1648 13.4491C17.2798 12.8004 10.9507 17.2616 10.3382 23.1681C10.0343 26.3611 10.6566 29.5742 12.1303 32.4205L12.3345 32.8644C13.1431 34.5781 14.1562 36.187 15.3516 37.6556H18.278C18.1419 37.3028 17.4273 34.5373 17.4273 34.5373L19.1854 34.8446C20.1608 35.0153 21.4085 35.1746 22.1571 35.2429C23.7639 35.3831 25.3814 35.3373 26.9777 35.1063L27.7376 35.0039C27.7376 35.0039 29.1101 37.3028 29.3823 37.6897H32.0818C31.7075 36.5858 31.1518 34.0935 31.1518 34.0935L32.3541 33.5472C33.0905 33.2009 33.7772 32.7569 34.3957 32.2271C33.8952 32.0368 33.4066 31.8164 32.9325 31.567C32.6736 31.4226 32.4813 31.1823 32.3966 30.8975C32.3119 30.6127 32.3416 30.306 32.4794 30.0429C32.6172 29.7798 32.8521 29.5812 33.1339 29.4896C33.4157 29.398 33.722 29.4206 33.9874 29.5526C34.8835 30.0381 35.8529 30.3725 36.857 30.5427ZM25.9002 15.1902C23.5058 14.7208 21.0286 14.9256 18.7431 15.782C18.6321 15.8261 18.5309 15.8917 18.4452 15.975C18.3595 16.0584 18.291 16.1578 18.2436 16.2677C18.1478 16.4897 18.1439 16.7407 18.2327 16.9656C18.3214 17.1904 18.4955 17.3707 18.7168 17.4668C18.938 17.5628 19.1882 17.5667 19.4123 17.4777C21.3802 16.7311 23.5148 16.5422 25.5826 16.9314C25.7038 16.9634 25.8303 16.9699 25.9542 16.9504C26.078 16.9309 26.1964 16.8859 26.3021 16.8182C26.4077 16.7505 26.4982 16.6616 26.5679 16.5571C26.6375 16.4525 26.6849 16.3346 26.7069 16.2108C26.7289 16.087 26.7251 15.96 26.6957 15.8377C26.6664 15.7155 26.6121 15.6006 26.5363 15.5005C26.4605 15.4003 26.3649 15.317 26.2554 15.2557C26.1459 15.1945 26.025 15.1567 25.9002 15.1447V15.1902ZM32.3199 23.8396C33.1719 23.8396 33.8625 23.1467 33.8625 22.2919C33.8625 21.4371 33.1719 20.7441 32.3199 20.7441C31.468 20.7441 30.7773 21.4371 30.7773 22.2919C30.7773 23.1467 31.468 23.8396 32.3199 23.8396Z" fill="#BBDDCF"/>
</svg>
