<svg width="48" height="48" viewBox="0 0 48 48" fill="none" xmlns="http://www.w3.org/2000/svg">
<path fill-rule="evenodd" clip-rule="evenodd" d="M30.9461 25.6684C32.8911 25.6684 34.7924 25.0916 36.4097 24.011C38.0269 22.9304 39.2873 21.3945 40.0317 19.5976C40.776 17.8006 40.9707 15.8233 40.5913 13.9156C40.2118 12.008 39.2752 10.2557 37.8999 8.88037C36.5246 7.50503 34.7723 6.56842 32.8646 6.18897C30.957 5.80951 28.9797 6.00426 27.1827 6.74859C25.3858 7.49291 23.8499 8.75338 22.7693 10.3706C21.6887 11.9878 21.1119 13.8892 21.1119 15.8342C21.1149 18.4414 22.152 20.9411 23.9956 22.7847C25.8392 24.6283 28.3388 25.6653 30.9461 25.6684ZM30.9461 7.3271C32.6286 7.3271 34.2734 7.82603 35.6724 8.7608C37.0713 9.69557 38.1617 11.0242 38.8056 12.5787C39.4495 14.1331 39.6179 15.8436 39.2897 17.4938C38.9614 19.144 38.1512 20.6599 36.9615 21.8496C35.7718 23.0393 34.2559 23.8496 32.6057 24.1778C30.9555 24.506 29.245 24.3376 27.6906 23.6937C26.1361 23.0498 24.8075 21.9594 23.8727 20.5605C22.938 19.1615 22.439 17.5167 22.439 15.8342C22.4416 13.5788 23.3387 11.4165 24.9336 9.82165C26.5284 8.22683 28.6907 7.32971 30.9461 7.3271ZM43.9077 28.5698C43.8147 28.3392 43.6548 28.1418 43.4485 28.0029C43.2422 27.8641 42.9991 27.7903 42.7504 27.791H42.1059C41.0145 27.7918 39.9415 28.0715 38.9887 28.6035L34.2813 31.2357H32.9387C32.7823 30.3811 32.3313 29.6083 31.6642 29.0516C30.9972 28.4949 30.1561 28.1896 29.2872 28.1887H20.8086C20.712 28.1888 20.6166 28.2099 20.529 28.2505C20.4414 28.2912 20.3637 28.3505 20.3013 28.4242L17.7324 31.4689C17.6708 31.3961 17.5941 31.3376 17.5076 31.2973C17.4211 31.257 17.3269 31.236 17.2315 31.2357H4.66355C4.48756 31.2357 4.31879 31.3056 4.19435 31.4301C4.06991 31.5545 4 31.7233 4 31.8993C4 32.0753 4.06991 32.244 4.19435 32.3685C4.31879 32.4929 4.48756 32.5628 4.66355 32.5628H12.7702V42.0728H4.66355C4.48756 42.0728 4.31879 42.1427 4.19435 42.2671C4.06991 42.3916 4 42.5603 4 42.7363C4 42.9123 4.06991 43.0811 4.19435 43.2055C4.31879 43.33 4.48756 43.3999 4.66355 43.3999H17.2315C17.4075 43.3999 17.5763 43.33 17.7007 43.2055C17.8252 43.0811 17.8951 42.9123 17.8951 42.7363V39.5543L31.4269 38.9333C31.4402 38.9333 31.4531 38.9333 31.4648 38.9302C33.5929 38.7033 35.5833 37.7686 37.1171 36.276L43.6225 29.9329C43.8006 29.76 43.9228 29.5379 43.9736 29.295C44.0244 29.0521 44.0015 28.7995 43.9077 28.5698ZM16.5695 42.0728H14.0973V32.5628H16.5695V42.0728ZM36.1919 35.3277C34.8765 36.6073 33.1709 37.4101 31.3465 37.6084L17.8966 38.2261V33.3348L21.1195 29.5162H29.2872C29.831 29.5174 30.358 29.704 30.7813 30.0453C31.2046 30.3865 31.4988 30.862 31.6154 31.3931L24.8915 33.0436C24.7343 33.0824 24.5967 33.1774 24.5046 33.3107C24.4125 33.444 24.3724 33.6063 24.3917 33.7671C24.4111 33.9279 24.4886 34.0761 24.6096 34.1837C24.7307 34.2913 24.8869 34.351 25.0489 34.3514C25.1024 34.3514 25.1558 34.345 25.2078 34.332L32.4143 32.5628H34.4542C34.5676 32.5629 34.679 32.5339 34.778 32.4787L39.6367 29.7619C40.3914 29.34 41.2416 29.1181 42.1062 29.1173H42.5612L36.1919 35.3277ZM29.0092 17.7769C29.1336 17.9013 29.2036 18.0701 29.2036 18.2461C29.2042 18.5913 29.3068 18.9287 29.4986 19.2158C29.6904 19.5028 29.9628 19.7268 30.2815 19.8595V16.4212C29.5991 16.2693 28.9889 15.8893 28.5516 15.344C28.1142 14.7986 27.8759 14.1204 27.8759 13.4213C27.8759 12.7223 28.1142 12.0441 28.5516 11.4987C28.9889 10.9533 29.5991 10.5734 30.2815 10.4215V9.30564C30.2815 9.12966 30.3514 8.96088 30.4759 8.83644C30.6003 8.712 30.7691 8.64209 30.9451 8.64209C31.1211 8.64209 31.2898 8.712 31.4143 8.83644C31.5387 8.96088 31.6086 9.12966 31.6086 9.30564V10.4185C32.2935 10.5689 32.9066 10.9486 33.3465 11.4947C33.7864 12.0408 34.0267 12.7207 34.0277 13.4219C34.0277 13.5979 33.9578 13.7667 33.8334 13.8911C33.7089 14.0156 33.5402 14.0855 33.3642 14.0855C33.1882 14.0855 33.0194 14.0156 32.895 13.8911C32.7705 13.7667 32.7006 13.5979 32.7006 13.4219C32.7001 13.0742 32.5959 12.7345 32.4014 12.4463C32.2069 12.158 31.9309 11.9343 31.6086 11.8036V15.2431C32.2942 15.3923 32.908 15.7716 33.3482 16.3179C33.7884 16.8642 34.0284 17.5447 34.0284 18.2463C34.0284 18.9479 33.7884 19.6284 33.3482 20.1747C32.908 20.721 32.2942 21.1003 31.6086 21.2495V22.3616C31.6086 22.5376 31.5387 22.7064 31.4143 22.8308C31.2898 22.9553 31.1211 23.0252 30.9451 23.0252C30.7691 23.0252 30.6003 22.9553 30.4759 22.8308C30.3514 22.7064 30.2815 22.5376 30.2815 22.3616V21.2461C29.5998 21.093 28.9903 20.7127 28.5533 20.1676C28.1162 19.6224 27.8776 18.9448 27.8765 18.2461C27.8765 18.0701 27.9464 17.9013 28.0708 17.7769C28.1952 17.6525 28.364 17.5826 28.54 17.5826C28.716 17.5826 28.8848 17.6525 29.0092 17.7769ZM32.4014 19.2218C32.5959 18.9335 32.7001 18.5938 32.7006 18.2461C32.7001 17.8984 32.5959 17.5588 32.4014 17.2706C32.2069 16.9824 31.9309 16.7587 31.6086 16.6282V19.8644C31.9309 19.7338 32.2069 19.51 32.4014 19.2218ZM29.4983 12.4519C29.3065 12.7391 29.2039 13.0766 29.2036 13.4219C29.2041 13.7673 29.3067 14.1048 29.4985 14.392C29.6903 14.6792 29.9627 14.9033 30.2815 15.036V11.8082C29.9627 11.9408 29.6902 12.1647 29.4983 12.4519Z" fill="#BBDDCF"/>
</svg>
