<svg width="40" height="40" viewBox="0 0 40 40" fill="none" xmlns="http://www.w3.org/2000/svg">
<path d="M15.0608 14.4838C17.8228 16.0818 22.2946 16.0818 25.0402 14.4838C27.794 12.8858 27.7693 10.2911 25.0073 8.69315C22.2453 7.09517 17.7735 7.09517 15.0279 8.69315C12.2823 10.2911 12.2988 12.8776 15.0608 14.4838ZM16.3267 11.7161C16.5404 11.6502 16.7459 11.5761 16.9515 11.5102C17.1076 11.4608 17.1981 11.4525 17.2638 11.4855C17.3049 11.5102 17.3296 11.5432 17.3625 11.6008C17.5022 11.8644 17.7324 12.095 18.0201 12.3092C18.0694 12.3504 18.1187 12.3833 18.1763 12.4163C18.3325 12.5069 18.5051 12.5728 18.7188 12.6222C19.2531 12.7375 19.7299 12.5316 19.6724 12.2021C19.6559 12.0868 19.5984 11.988 19.5244 11.8809C19.3435 11.6091 19.1134 11.3537 18.9901 11.0736C18.7928 10.6124 18.8832 10.2005 19.5162 9.87104C20.2395 9.50038 21.0369 9.4839 21.8918 9.7063C22.2371 9.80515 22.2371 9.80515 22.5083 9.64864C22.5988 9.59922 22.6892 9.54156 22.7796 9.49214C22.9851 9.37682 23.0591 9.37682 23.2646 9.49214C23.3304 9.52509 23.3879 9.56627 23.4537 9.59922C23.8811 9.84633 23.8811 9.84633 23.4619 10.1017C23.1577 10.2747 23.1577 10.2747 23.4126 10.4806C23.6099 10.6371 23.7578 10.8018 23.8811 10.983C23.9469 11.0819 23.9058 11.156 23.7496 11.2054C23.5112 11.2796 23.2728 11.3619 23.0344 11.4361C22.8865 11.4773 22.796 11.4855 22.7303 11.4525C22.6974 11.4278 22.6645 11.3949 22.6316 11.3455C22.4755 11.0901 22.2371 10.876 21.9165 10.6865C21.8754 10.6618 21.8261 10.6371 21.7767 10.6124C21.6699 10.563 21.5712 10.5135 21.4397 10.4806C20.9794 10.3735 20.5766 10.5465 20.6341 10.8348C20.6588 10.983 20.741 11.1148 20.8396 11.2466C21.004 11.4773 21.1767 11.7079 21.3 11.9468C21.6863 12.7211 20.8478 13.4789 19.5079 13.553C19.023 13.5777 18.5626 13.52 18.1434 13.38C17.9625 13.3224 17.8228 13.3306 17.6748 13.4212C17.5351 13.5118 17.3789 13.5942 17.2392 13.6765C17.1076 13.7507 16.9679 13.7589 16.8364 13.6848C16.7377 13.6354 16.6473 13.5777 16.5487 13.5283C16.4829 13.4871 16.4171 13.4541 16.3514 13.413C16.2116 13.3306 16.2281 13.2482 16.3596 13.1658C16.4665 13.1 16.5733 13.0423 16.672 12.9764C16.9103 12.8364 16.9103 12.8281 16.7131 12.6716C16.4665 12.4739 16.2445 12.268 16.1048 12.0374C16.0143 11.8562 16.039 11.815 16.3267 11.7161ZM25.9362 14.9945C26.7007 14.5497 27.9337 14.5497 28.6982 14.9945C29.4627 15.4393 29.4709 16.1559 28.7064 16.6007C27.9501 17.0455 26.7089 17.0455 25.9444 16.6007C25.1799 16.1559 25.1717 15.4393 25.9362 14.9945ZM11.3699 6.568C12.1344 6.1232 13.3674 6.1232 14.1401 6.568C14.9046 7.0128 14.9128 7.72942 14.1483 8.17422C13.3921 8.61902 12.1508 8.61902 11.3863 8.17422C10.6136 7.72942 10.6054 7.0128 11.3699 6.568ZM1.02061 10.0028L22.8289 22.6137C24.0866 23.3468 26.1335 23.3468 27.3829 22.6137L39.0639 15.8099C40.3134 15.0768 40.3134 13.8907 39.0557 13.1658L17.2474 0.546736C15.9897 -0.186358 13.9428 -0.178121 12.6851 0.546736L1.00417 7.35875C-0.245308 8.08361 -0.237088 9.26974 1.02061 10.0028ZM5.75547 7.3258C5.61573 7.24343 5.46776 7.17754 5.31158 7.11164L12.2906 3.05079C12.3974 3.1414 12.5207 3.22377 12.6605 3.30614C13.9346 4.04747 16.0061 4.03923 17.272 3.30614C17.42 3.22377 17.5433 3.13316 17.6502 3.03432L34.6332 12.8611C34.403 12.9434 34.1975 13.0341 34.0002 13.1494C32.7261 13.8907 32.7343 15.0851 34.0167 15.8264C34.214 15.9417 34.4277 16.0323 34.6579 16.1147L27.6131 20.2167C27.4734 20.0849 27.309 19.9614 27.1117 19.8461C25.8293 19.1047 23.766 19.1047 22.5001 19.8461C22.4015 19.9037 22.3193 19.9614 22.2371 20.0273L5.30336 10.2252C5.46776 10.1593 5.62395 10.0852 5.76369 10.0028C7.03783 9.26974 7.02961 8.06713 5.75547 7.3258ZM0.453413 12.5234C1.00417 12.2351 1.8673 12.2763 2.40161 12.5893L25.1881 25.7685L37.5103 18.594C38.0446 18.281 38.916 18.281 39.4503 18.594C39.9928 18.9071 39.9928 19.4095 39.4585 19.7225L26.3636 27.35C25.7225 27.7207 24.6785 27.7207 24.0373 27.35L23.577 27.0864L23.2564 26.897L0.404091 13.6848C-0.146665 13.3553 -0.138445 12.8281 0.453413 12.5234ZM39.4832 23.8493L26.3883 31.4767C25.7471 31.8474 24.7031 31.8474 24.062 31.4767L23.6016 31.2132L23.2728 31.0237L0.428752 17.8033C-0.130225 17.482 -0.113784 16.9549 0.478074 16.6419C1.02883 16.3536 1.89196 16.3948 2.42627 16.7078L25.2128 29.887L37.5267 22.7208C38.061 22.4078 38.9324 22.4078 39.4749 22.7208C40.0092 23.0338 40.0175 23.5363 39.4832 23.8493ZM0.453413 20.7686C1.00417 20.4803 1.8673 20.5215 2.40161 20.8345L25.1881 34.022L37.5103 26.8393C38.0446 26.5263 38.916 26.5263 39.4503 26.8393C39.9928 27.1523 39.9928 27.6548 39.4585 27.9678L26.3636 35.5953C25.7225 35.9659 24.6785 35.9659 24.0373 35.5953L23.577 35.3317L23.2564 35.1422L0.404091 21.93C-0.146665 21.6088 -0.138445 21.0816 0.453413 20.7686ZM39.4832 32.0945L26.3883 39.722C25.7471 40.0927 24.7031 40.0927 24.062 39.722L23.6016 39.4584L23.2728 39.269L0.428752 26.0485C-0.130225 25.7273 -0.113784 25.2001 0.478074 24.8871C1.02883 24.5988 1.89196 24.64 2.42627 24.953L25.2128 38.1323L37.535 30.9578C38.0693 30.6448 38.9406 30.6448 39.4832 30.9578C40.0092 31.2791 40.0175 31.7815 39.4832 32.0945Z" fill="#BBDDCF"/>
</svg>
